:FULLY-SPECIFIED
:FORCE-ALL-JOINTS-BE-3DOF
:DEGREES
849
root 3.58872 16.5247 27.4562 -12.9191 28.2917 -3.57593
lfemur -17.2812 7.80973 -17.9835
ltibia 37.9941 -0 0
lfoot -8.4425 -18.4939 -1.00506
ltoes 22.3873 -0 0
rfemur -51.8047 -5.60384 11.6149
rtibia 48.4955 -0 0
rfoot 0.0543277 -4.27315 0.968015
rtoes -16.2385 0 0
lowerback 11.0438 -0.480597 -3.73196
upperback 3.42428 -1.01792 -1.58195
thorax -2.41607 -0.514401 0.746696
lowerneck -6.49937 -3.84714 1.8615
upperneck 5.78794 -5.59132 3.6826
head 3.10091 -2.57326 0.632564
lclavicle -3.50457e-15 1.24098e-14 2.22904e-31
lhumerus -39.2433 -21.2446 83.5338
lradius 59.1799 -0 0
lwrist 21.1131 0 0
lhand 3.26382 2.51088 0.353841
lfingers 7.12502 -0 0
lthumb 28.6698 29.8848 0.225868
rclavicle -3.50457e-15 1.24098e-14 2.22904e-31
rhumerus -43.1303 4.79317 -62.4577
rradius 57.0889 -0 0
rwrist 1.97993 0 0
rhand -9.91996 -28.1236 -0.212928
rfingers 7.12502 -0 0
rthumb 16.0542 -57.3718 -0.186977
850
root 3.6172 16.5272 27.5851 -13.025 27.5851 -3.41229
lfemur -16.9983 7.73946 -18.0511
ltibia 37.8137 -0 0
lfoot -8.24965 -19.0599 -0.951165
ltoes 22.4775 -0 0
rfemur -52.3392 -5.40799 11.3991
rtibia 48.4442 -0 0
rfoot 0.314025 -3.86558 0.91627
rtoes -16.1088 0 0
lowerback 11.1891 -0.551625 -3.77939
upperback 3.48489 -1.12406 -1.55364
thorax -2.43516 -0.566457 0.809327
lowerneck -6.51534 -3.80615 1.89786
upperneck 5.90697 -5.54414 3.66503
head 3.14002 -2.54789 0.620371
lclavicle -3.64179e-15 1.25897e-14 2.11059e-31
lhumerus -38.9826 -21.3592 83.3449
lradius 59.0139 -0 0
lwrist 21.2318 0 0
lhand 3.61935 2.62027 0.334973
lfingers 7.12502 -0 0
lthumb 29.0113 29.9576 0.213829
rclavicle -3.64179e-15 1.25897e-14 2.11059e-31
rhumerus -43.5657 4.27996 -61.7227
rradius 56.7552 -0 0
rwrist 1.92277 0 0
rhand -9.71738 -28.2397 -0.201598
rfingers 7.12502 -0 0
rthumb 16.2495 -57.4775 -0.177029
851
root 3.64567 16.5297 27.714 -13.1325 26.8787 -3.24823
lfemur -16.7153 7.66953 -18.1191
ltibia 37.6333 -0 0
lfoot -8.05733 -19.6257 -0.89537
ltoes 22.5677 -0 0
rfemur -52.8742 -5.21416 11.1815
rtibia 48.3928 -0 0
rfoot 0.573344 -3.45825 0.86268
rtoes -15.979 0 0
lowerback 11.3344 -0.622532 -3.827
upperback 3.54544 -1.23022 -1.52545
thorax -2.4543 -0.618492 0.871975
lowerneck -6.53129 -3.76514 1.9342
upperneck 6.02598 -5.49692 3.64756
head 3.17913 -2.52251 0.608194
lclavicle -3.77901e-15 1.27695e-14 1.98783e-31
lhumerus -38.7214 -21.473 83.1553
lradius 58.848 -0 0
lwrist 21.3505 0 0
lhand 3.97484 2.72955 0.315426
lfingers 7.12502 -0 0
lthumb 29.3527 30.0303 0.201356
rclavicle -3.77901e-15 1.27695e-14 1.98783e-31
rhumerus -44.0074 3.77238 -60.9842
rradius 56.4215 -0 0
rwrist 1.86561 0 0
rhand -9.51482 -28.3557 -0.189857
rfingers 7.12502 -0 0
rthumb 16.4449 -57.5831 -0.16672
852
root 3.67414 16.5322 27.8429 -13.2416 26.1726 -3.08369
lfemur -16.4324 7.59993 -18.1874
ltibia 37.4529 -0 0
lfoot -7.86559 -20.1913 -0.837679
ltoes 22.6579 -0 0
rfemur -53.4098 -5.02237 10.9622
rtibia 48.3415 -0 0
rfoot 0.832272 -3.05117 0.807248
rtoes -15.8492 0 0
lowerback 11.4798 -0.693318 -3.87479
upperback 3.60594 -1.33642 -1.49737
thorax -2.47349 -0.670505 0.934642
lowerneck -6.54721 -3.72413 1.97053
upperneck 6.14497 -5.44967 3.63019
head 3.21823 -2.49712 0.596036
lclavicle -3.91623e-15 1.29494e-14 1.86077e-31
lhumerus -38.4595 -21.5859 82.965
lradius 58.682 -0 0
lwrist 21.4692 0 0
lhand 4.3303 2.8387 0.295202
lfingers 7.12502 -0 0
lthumb 29.6942 30.1029 0.18845
rclavicle -3.91623e-15 1.29494e-14 1.86077e-31
rhumerus -44.4554 3.27053 -60.2423
rradius 56.0877 -0 0
rwrist 1.80845 0 0
rhand -9.31229 -28.4716 -0.177706
rfingers 7.12502 -0 0
rthumb 16.6402 -57.6888 -0.156052
853
root 3.70262 16.5347 27.9718 -13.3523 25.4669 -2.91864
lfemur -16.1494 7.53067 -18.256
ltibia 37.2725 -0 0
lfoot -7.67442 -20.7567 -0.778099
ltoes 22.7481 -0 0
rfemur -53.946 -4.83262 10.7412
rtibia 48.2902 -0 0
rfoot 1.0908 -2.64435 0.749979
rtoes -15.7195 0 0
lowerback 11.6252 -0.763983 -3.92276
upperback 3.6664 -1.44264 -1.4694
thorax -2.49275 -0.722498 0.997326
lowerneck -6.56311 -3.68311 2.00684
upperneck 6.26393 -5.40238 3.61291
head 3.25732 -2.47173 0.583895
lclavicle -4.05345e-15 1.31292e-14 1.72939e-31
lhumerus -38.197 -21.698 82.774
lradius 58.516 -0 0
lwrist 21.5879 0 0
lhand 4.68571 2.94772 0.274301
lfingers 7.12502 -0 0
lthumb 30.0356 30.1755 0.175112
rclavicle -4.05345e-15 1.31292e-14 1.72939e-31
rhumerus -44.9097 2.77453 -59.4969
rradius 55.754 -0 0
rwrist 1.75129 0 0
rhand -9.10978 -28.5875 -0.165146
rfingers 7.12502 -0 0
rthumb 16.8355 -57.7944 -0.145023
854
root 3.73109 16.5372 28.1007 -13.4646 24.7614 -2.75304
lfemur -15.8663 7.46175 -18.325
ltibia 37.0921 -0 0
lfoot -7.48385 -21.3219 -0.716635
ltoes 22.8383 -0 0
rfemur -54.4828 -4.64495 10.5184
rtibia 48.2389 -0 0
rfoot 1.3489 -2.2378 0.690877
rtoes -15.5897 0 0
lowerback 11.7707 -0.834526 -3.97091
upperback 3.7268 -1.54889 -1.44153
thorax -2.51206 -0.77447 1.06003
lowerneck -6.57898 -3.64208 2.04315
upperneck 6.38287 -5.35506 3.59574
head 3.29641 -2.44632 0.571771
lclavicle -4.19067e-15 1.33091e-14 1.59371e-31
lhumerus -37.9338 -21.8094 82.5823
lradius 58.35 -0 0
lwrist 21.7066 0 0
lhand 5.04109 3.05661 0.252724
lfingers 7.12502 -0 0
lthumb 30.377 30.2479 0.161342
rclavicle -4.19067e-15 1.33091e-14 1.59371e-31
rhumerus -45.3702 2.28449 -58.7477
rradius 55.4203 -0 0
rwrist 1.69414 0 0
rhand -8.9073 -28.7034 -0.152176
rfingers 7.12502 -0 0
rthumb 17.0308 -57.8999 -0.133634
855
root 3.75956 16.5397 28.2296 -13.5785 24.0562 -2.58685
lfemur -15.5832 7.39316 -18.3943
ltibia 36.9117 -0 0
lfoot -7.29391 -21.8869 -0.653296
ltoes 22.9286 -0 0
rfemur -55.0202 -4.45936 10.294
rtibia 48.1876 -0 0
rfoot 1.60658 -1.83153 0.629946
rtoes -15.46 0 0
lowerback 11.9163 -0.904946 -4.01925
upperback 3.78716 -1.65517 -1.41378
thorax -2.53143 -0.82642 1.12275
lowerneck -6.59482 -3.60103 2.07944
upperneck 6.50178 -5.3077 3.57867
head 3.33549 -2.42091 0.559666
lclavicle -4.32789e-15 1.34889e-14 1.45372e-31
lhumerus -37.6701 -21.9199 82.3899
lradius 58.184 -0 0
lwrist 21.8253 0 0
lhand 5.39642 3.16536 0.230473
lfingers 7.12502 -0 0
lthumb 30.7184 30.3203 0.14714
rclavicle -4.32789e-15 1.34889e-14 1.45372e-31
rhumerus -45.8369 1.80052 -57.9949
rradius 55.0865 -0 0
rwrist 1.63698 0 0
rhand -8.70484 -28.8192 -0.138797
rfingers 7.12502 -0 0
rthumb 17.226 -58.0054 -0.121886
856
root 3.78804 16.5422 28.3585 -13.694 23.3513 -2.42003
lfemur -15.3001 7.32491 -18.4639
ltibia 36.7313 -0 0
lfoot -7.10459 -22.4517 -0.588086
ltoes 23.0188 -0 0
rfemur -55.5581 -4.27588 10.0679
rtibia 48.1363 -0 0
rfoot 1.86382 -1.42554 0.567189
rtoes -15.3302 0 0
lowerback 12.0619 -0.975243 -4.06776
upperback 3.84746 -1.76149 -1.38615
thorax -2.55086 -0.878349 1.18549
lowerneck -6.61063 -3.55998 2.11571
upperneck 6.62068 -5.2603 3.5617
head 3.37457 -2.39549 0.547577
lclavicle -4.46511e-15 1.36688e-14 1.30943e-31
lhumerus -37.4058 -22.0295 82.1967
lradius 58.018 -0 0
lwrist 21.944 0 0
lhand 5.75171 3.27397 0.207547
lfingers 7.12502 -0 0
lthumb 31.0598 30.3926 0.132508
rclavicle -4.46511e-15 1.36688e-14 1.30943e-31
rhumerus -46.3099 1.32273 -57.2384
rradius 54.7528 -0 0
rwrist 1.57982 0 0
rhand -8.50241 -28.935 -0.125008
rfingers 7.12502 -0 0
rthumb 17.4213 -58.1109 -0.109779
857
root 3.81651 16.5447 28.4874 -13.8111 22.6467 -2.25254
lfemur -15.0169 7.25701 -18.5339
ltibia 36.5509 -0 0
lfoot -6.91594 -23.0163 -0.521015
ltoes 23.109 -0 0
rfemur -56.0967 -4.09453 9.84009
rtibia 48.0849 -0 0
rfoot 2.1206 -1.01984 0.502612
rtoes -15.2004 0 0
lowerback 12.2076 -1.04542 -4.11645
upperback 3.90772 -1.86783 -1.35862
thorax -2.57034 -0.930257 1.24825
lowerneck -6.62642 -3.51892 2.15198
upperneck 6.73955 -5.21287 3.54483
head 3.41364 -2.37006 0.535507
lclavicle -4.60233e-15 1.38486e-14 1.16082e-31
lhumerus -37.1409 -22.1384 82.0029
lradius 57.852 -0 0
lwrist 22.0627 0 0
lhand 6.10695 3.38244 0.183948
lfingers 7.12502 -0 0
lthumb 31.4011 30.4648 0.117445
rclavicle -4.60233e-15 1.38486e-14 1.16082e-31
rhumerus -46.789 0.851246 -56.4781
rradius 54.4191 -0 0
rwrist 1.52266 0 0
rhand -8.30001 -29.0507 -0.110811
rfingers 7.12502 -0 0
rthumb 17.6165 -58.2163 -0.0973119
858
root 3.84499 16.5472 28.6164 -13.9299 21.9424 -2.08434
lfemur -14.7337 7.18944 -18.6041
ltibia 36.3705 -0 0
lfoot -6.72795 -23.5806 -0.452088
ltoes 23.1992 -0 0
rfemur -56.6358 -3.91532 9.61066
rtibia 48.0336 -0 0
rfoot 2.37692 -0.614431 0.43622
rtoes -15.0707 0 0
lowerback 12.3533 -1.11547 -4.16532
upperback 3.96794 -1.9742 -1.3312
thorax -2.58988 -0.982144 1.31102
lowerneck -6.64218 -3.47784 2.18823
upperneck 6.85839 -5.16541 3.52806
head 3.4527 -2.34462 0.523454
lclavicle -4.73955e-15 1.40285e-14 1.00791e-31
lhumerus -36.8754 -22.2464 81.8084
lradius 57.686 -0 0
lwrist 22.1814 0 0
lhand 6.46215 3.49076 0.159678
lfingers 7.12502 -0 0
lthumb 31.7424 30.5369 0.101952
rclavicle -4.73955e-15 1.40285e-14 1.00791e-31
rhumerus -47.2743 0.386175 -55.7139
rradius 54.0854 -0 0
rwrist 1.4655 0 0
rhand -8.09764 -29.1664 -0.0962048
rfingers 7.12502 -0 0
rthumb 17.8117 -58.3217 -0.0844859
859
root 3.87346 16.5497 28.7453 -14.0503 21.2385 -1.91539
lfemur -14.4505 7.12223 -18.6747
ltibia 36.1902 -0 0
lfoot -6.54065 -24.1447 -0.381314
ltoes 23.2894 -0 0
rfemur -57.1756 -3.73827 9.37959
rtibia 47.9823 -0 0
rfoot 2.63276 -0.209331 0.368016
rtoes -14.9409 0 0
lowerback 12.4992 -1.18539 -4.21437
upperback 4.0281 -2.08059 -1.30389
thorax -2.60948 -1.03401 1.37382
lowerneck -6.65792 -3.43676 2.22446
upperneck 6.97721 -5.11791 3.51138
head 3.49176 -2.31917 0.511418
lclavicle -4.87676e-15 1.42083e-14 8.50697e-32
lhumerus -36.6092 -22.3536 81.6133
lradius 57.52 -0 0
lwrist 22.3002 0 0
lhand 6.8173 3.59893 0.134736
lfingers 7.12502 -0 0
lthumb 32.0837 30.6089 0.0860294
rclavicle -4.87676e-15 1.42083e-14 8.50697e-32
rhumerus -47.7658 -0.0723652 -54.9458
rradius 53.7516 -0 0
rwrist 1.40834 0 0
rhand -7.8953 -29.282 -0.0811903
rfingers 7.12502 -0 0
rthumb 18.0068 -58.427 -0.071301
860
root 3.90193 16.5522 28.8742 -14.1724 20.5349 -1.74565
lfemur -14.1672 7.05536 -18.7457
ltibia 36.0098 -0 0
lfoot -6.35407 -24.7085 -0.308699
ltoes 23.3796 -0 0
rfemur -57.716 -3.56341 9.14692
rtibia 47.931 -0 0
rfoot 2.88811 0.195457 0.298006
rtoes -14.8111 0 0
lowerback 12.645 -1.25519 -4.2636
upperback 4.08822 -2.18702 -1.27669
thorax -2.62913 -1.08585 1.43663
lowerneck -6.67363 -3.39567 2.26069
upperneck 7.09601 -5.07037 3.49481
head 3.53081 -2.29372 0.4994
lclavicle -5.01398e-15 1.43882e-14 6.89173e-32
lhumerus -36.3425 -22.4599 81.4174
lradius 57.354 -0 0
lwrist 22.4189 0 0
lhand 7.1724 3.70694 0.109124
lfingers 7.12502 -0 0
lthumb 32.425 30.6808 0.0696785
rclavicle -5.01398e-15 1.43882e-14 6.89173e-32
rhumerus -48.2633 -0.524259 -54.1738
rradius 53.4179 -0 0
rwrist 1.35118 0 0
rhand -7.69299 -29.3976 -0.0657676
rfingers 7.12502 -0 0
rthumb 18.202 -58.5323 -0.0577574
